<svg
        xmlns="http://www.w3.org/2000/svg"
        width="24"
        height="24"
        version="1.1"
        viewBox="0 0 1024 1024"
        xmlSpace="preserve"
        className="cursor-pointer fill-red"
>
    <path
            fill="#262626"
            d="M983.766 312.727c-25.785-60.972-62.694-115.728-109.705-162.744-47.011-47.017-101.762-83.934-162.732-109.726C648.194 13.548 581.14.004 512 0c-69.104 0-136.155 13.54-199.289 40.243-60.969 25.787-115.721 62.699-162.735 109.71-47.014 47.011-83.929 101.761-109.72 162.728C13.548 375.814.004 442.865 0 511.97c-.004 69.109 13.533 136.165 40.234 199.304 25.785 60.973 62.696 115.728 109.707 162.743 47.011 47.018 101.762 83.935 162.732 109.727 63.136 26.708 130.19 40.253 199.323 40.257h.009c69.104 0 136.153-13.54 199.288-40.243 60.969-25.787 115.72-62.699 162.733-109.709 47.013-47.01 83.929-101.76 109.72-162.728 26.708-63.134 40.251-130.186 40.255-199.29.003-69.11-13.534-136.165-40.235-199.304zM512.004 976.328h-.03c-124.026-.007-240.627-48.313-328.323-136.019-87.694-87.705-135.986-204.31-135.979-328.336.015-256.016 208.312-464.3 464.356-464.3 124.026.007 240.626 48.312 328.32 136.017 87.695 87.706 135.986 204.311 135.979 328.337-.014 256.016-208.309 464.301-464.323 464.301z"
    />
    <g>
        <path
                fill="#262626"
                d="M672.877 613.708c-22.307 0-42.835 7.61-59.134 20.374l-205.25-100.107c.166-2.303.254-4.628.254-6.974 0-1.098-.025-2.189-.062-3.28L617.389 421.93c15.668 11.118 34.815 17.654 55.489 17.654 53.017 0 95.995-42.979 95.995-95.995 0-53.016-42.979-95.995-95.995-95.995s-95.995 42.979-95.995 95.995c0 2.869.133 5.706.38 8.51L372.577 451.93c-16.409-13.093-37.201-20.924-59.825-20.924-53.017 0-95.995 42.979-95.995 95.995s42.979 95.995 95.995 95.995c21.258 0 40.897-6.915 56.804-18.61l207.421 101.166a96.91 96.91 0 00-.095 4.151c0 53.017 42.979 95.995 95.995 95.995s95.995-42.979 95.995-95.995c0-53.016-42.978-95.995-95.995-95.995z"
        />
    </g>
</svg>
